Coordinates
version=1
nRows=20
nColumns=34
inDegrees=yes

Units are S.I. units (second, meters, Newtons, ...)
If the header above contains a line with 'inDegrees', this indicates whether rotational values are in degrees (yes) or radians (no).

endheader
time	pelvis_tilt	pelvis_list	pelvis_rotation	pelvis_tx	pelvis_ty	pelvis_tz	hip_flexion_r	hip_adduction_r	hip_rotation_r	knee_angle_r	ankle_angle_r	subtalar_angle_r	mtp_angle_r	hip_flexion_l	hip_adduction_l	hip_rotation_l	knee_angle_l	ankle_angle_l	subtalar_angle_l	mtp_angle_l	lumbar_extension	lumbar_bending	lumbar_rotation	arm_flex_r	arm_add_r	arm_rot_r	elbow_flex_r	pro_sup_r	arm_flex_l	arm_add_l	arm_rot_l	elbow_flex_l	pro_sup_l
      0.00000000	      2.97097134	     -0.87044435	      0.05362589	      0.39738765	      0.90825892	     -0.03308829	     -5.55633975	     -6.66882256	     -2.62119442	      2.13211636	      3.73077275	     -2.89855963	      0.00000000	     -4.25988778	     -8.25148622	     -6.72630059	      3.41153593	      8.70107921	     -0.55410085	      0.00000000	     -3.29905602	      1.27959057	      2.13968125	     80.73155317	     -2.95070675	     53.85317818	    123.91869917	    111.95882096	     82.89096193	     -7.05943940	     75.42460408	    144.97342410	     90.00094022
      0.01666670	      1.27848003	     -1.45001121	     -0.63671162	      0.39890656	      0.90822580	     -0.03310834	     -3.52384572	     -6.15461416	     -1.39879645	      2.12008212	      5.83561994	     -1.73576533	      0.00000000	     -2.61262740	     -8.60406064	     -6.46613559	      2.54133318	      7.33037899	     -0.83533338	      0.00000000	     -1.89427765	      2.50603823	      1.55950355	     85.32781348	     -3.52508655	     57.06714937	    125.92074097	    107.93553542	     85.34359677	     -8.92737302	     69.42784635	    145.13161013	     96.33065933
      0.03333330	      0.30854343	     -1.42309165	     -1.53197416	      0.40081064	      0.90919757	     -0.03152286	     -2.59932263	     -6.19828465	     -0.25123863	      1.63599121	      4.81142152	     -2.58239426	      0.00000000	     -2.15843381	     -8.73547414	     -6.98820342	      1.75037234	      6.88507692	      0.09759632	      0.00000000	     -0.32876633	      1.97098210	      3.83302816	     84.80950111	     -5.88112383	     57.15870869	    130.46916139	    105.95313107	     86.00054723	    -10.13905845	     71.96067129	    147.08636418	    101.19003593
      0.05000000	      0.24580956	     -1.29899346	     -2.02338236	      0.40033113	      0.90916193	     -0.03116589	     -2.72751030	     -6.42640133	      0.16706059	      1.12847835	      4.75958905	     -1.70913039	      0.00000000	     -2.82838896	     -8.60121817	     -6.98562379	      0.59118748	      5.78715924	     -0.32933036	      0.00000000	     -0.26020199	      1.79106925	      4.97161589	     85.13646161	     -6.19422878	     59.00013654	    131.01224655	    105.77417359	     85.85643588	     -9.87354912	     72.65248667	    148.14135693	    102.39334111
      0.06666670	     -0.00445387	     -1.24556128	     -2.17560848	      0.40046534	      0.90565313	     -0.03018260	     -2.71604347	     -6.45142918	      0.24070477	      0.52221662	      4.66029159	     -1.66900980	      0.00000000	     -2.84095634	     -8.53587571	     -6.91442875	      0.00000000	      5.77278567	     -0.37445221	      0.00000000	     -0.13707203	      1.67058765	      5.13653273	     85.25672608	     -5.87582430	     59.18506938	    130.78117364	    105.77006311	     85.94383485	     -9.64077281	     72.71858435	    147.98121834	    102.49166488
      0.08333330	     -0.30321806	     -1.07154642	     -2.39840950	      0.40152949	      0.90207012	     -0.03114976	     -2.65572372	     -6.64931364	      0.61494697	      0.00000000	      4.15757972	     -1.95692304	      0.00000000	     -2.54508522	     -8.29797628	     -6.65269259	      0.00000000	      5.64484861	     -1.04425275	      0.00000000	      0.27108973	      1.63644498	      5.27925827	     85.58749110	     -5.57182694	     60.44651840	    128.83625544	    105.76563888	     86.34905175	     -8.64658738	     73.43197341	    147.42402350	    103.11627803
      0.10000000	     -0.54921653	     -1.05574436	     -2.71632680	      0.40115557	      0.90509070	     -0.03084813	     -2.32079226	     -6.69741251	      1.09503483	      0.00000000	      4.04720486	     -2.06297097	      0.00000000	     -2.35682287	     -8.27003758	     -6.39830547	      0.00000000	      5.58356657	     -1.51186024	      0.00000000	      0.53248237	      1.62587824	      5.86403753	     85.63250615	     -5.77242191	     60.66999597	    128.16721867	    105.72552437	     86.22030680	     -8.09858800	     73.66715578	    148.88256235	    103.55894107
      0.11666670	     -0.62672233	     -1.04252957	     -2.78581988	      0.40039504	      0.90857586	     -0.03039013	     -2.17797552	     -6.68568724	      1.13000778	      0.00000000	      4.02256658	     -2.05840694	      0.00000000	     -2.25235107	     -8.20787617	     -6.38442481	      0.00000000	      5.55127240	     -1.52626680	      0.00000000	      0.32640967	      1.65637919	      5.78246048	     85.58476424	     -5.75772595	     60.70385742	    128.15969796	    105.72347008	     86.19258907	     -8.12687995	     73.66693635	    148.82926034	    103.58128681
      0.13333330	     -1.35873750	     -1.01641983	     -2.91852722	      0.40063803	      0.90536675	     -0.03027360	     -1.29328210	     -6.66199310	      2.07790890	      0.00000000	      3.38044433	     -3.23677770	      0.00000000	     -1.46637672	     -8.17275992	     -5.75387431	      0.00000000	      4.57820944	     -3.23534179	      0.00000000	      0.92850273	      1.97655548	      5.26925290	     85.90827926	     -4.19918684	     61.50780100	    127.19092362	    105.30782468	     85.88538559	     -9.10051573	     73.32547825	    148.15618201	    105.78368250
      0.15000000	     -1.14538980	     -1.07098426	     -3.00191095	      0.39991360	      0.90547513	     -0.03100121	     -1.50399355	     -6.59458198	      2.25244851	      0.00000000	      3.32467532	     -3.12231582	      0.00000000	     -1.76168147	     -8.20868909	     -5.79780146	      0.00000000	      4.54559786	     -3.23509026	      0.00000000	      1.08628452	      1.89449954	      5.24957927	     85.23619348	     -4.86095280	     61.71545387	    127.44239026	    105.28119145	     85.38465406	     -9.57542445	     73.42134570	    148.70544455	    105.92039544
      0.16666670	     -1.08035215	     -1.09246576	     -3.11783624	      0.39963885	      0.90489305	     -0.03080039	     -1.55596921	     -6.59573223	      2.25733136	      0.00000000	      3.30834288	     -3.12227489	      0.00000000	     -1.89294617	     -8.19845315	     -5.80670001	      0.00000000	      4.54184254	     -3.23572594	      0.00000000	      1.29511538	      1.95173745	      5.13616302	     85.20550061	     -4.98160140	     61.71350326	    127.47401141	    105.27311069	     85.35932758	     -9.60571699	     73.42162481	    148.80828059	    105.94001377
      0.18333330	     -1.10633937	     -1.08372195	     -3.21086959	      0.39832894	      0.90529789	     -0.03181179	     -1.42341472	     -6.62073324	      2.26886142	      0.00000000	      3.31278484	     -3.12860489	      0.00000000	     -1.81028358	     -8.12521819	     -5.85761794	      0.00000000	      4.55048286	     -3.26126169	      0.00000000	      1.15518947	      2.02309516	      4.95681016	     85.18252113	     -5.04538367	     61.70539639	    127.49824295	    105.26374143	     85.30427214	     -9.59454776	     73.43461952	    148.81373851	    105.95674701
      0.20000000	     -1.78531349	     -0.92502476	     -3.22875042	      0.39930849	      0.90349615	     -0.03221400	     -0.63361685	     -6.79041800	      2.55725037	      0.00000000	      3.25065555	     -3.43116410	      0.00000000	     -1.01733730	     -7.94976419	     -6.05410608	      0.00000000	      4.33108710	     -3.38269050	      0.00000000	      1.88005101	      1.88755048	      4.30652761	     85.05109225	     -4.53086989	     61.50898006	    127.86963205	    104.79294272	     84.96132792	     -9.62257952	     74.03525490	    148.15446805	    106.66360719
      0.21666670	     -1.94716528	     -0.89876479	     -3.27658471	      0.39933040	      0.90334725	     -0.03157434	     -0.40102442	     -6.84250744	      2.63760891	      0.00000000	      3.23046768	     -3.45965929	      0.00000000	     -0.85749597	     -7.91749440	     -6.06902252	      0.00000000	      4.38803748	     -3.38693632	      0.00000000	      1.81113285	      1.97612629	      4.09433791	     85.47146162	     -3.70218101	     61.35359281	    127.91275183	    104.68004743	     85.28587713	     -9.45078541	     73.97660843	    147.15161404	    106.79937132
      0.23333330	     -2.06304952	     -0.96750178	     -3.26484030	      0.39936699	      0.90305205	     -0.03142857	     -0.24773648	     -6.76948045	      2.72139476	      0.00000000	      3.18967291	     -3.58036007	      0.00000000	     -0.74011082	     -8.01690510	     -5.90230773	      0.00000000	      4.61950243	     -3.24960293	      0.00000000	      1.75090216	      1.98748271	      4.28456362	     85.64910674	     -3.18353730	     61.20962565	    127.98872540	    104.50172226	     85.75123272	     -9.41909596	     73.81095413	    146.30598401	    107.00757427
      0.25000000	     -2.04161640	     -0.92148584	     -3.26407078	      0.40042162	      0.90175486	     -0.03199724	     -0.26662380	     -6.82683788	      2.73869915	      0.00000000	      3.20605341	     -3.59411632	      0.00000000	     -0.71495173	     -7.96814623	     -5.90079641	      0.00000000	      4.60837756	     -3.23437511	      0.00000000	      1.79148965	      2.10244099	      4.23136686	     85.64579534	     -3.19945608	     61.19091546	    127.99719649	    104.48998652	     85.78366762	     -9.34353530	     73.78754566	    146.29088423	    107.01941835
      0.26666670	     -2.11854909	     -0.95571877	     -3.22419119	      0.40190665	      0.90042000	     -0.03146019	     -0.25572754	     -6.78098504	      2.71634653	      0.00000000	      3.22768638	     -3.62885388	      0.00000000	     -0.71720622	     -8.05500340	     -5.84746512	      0.00000000	      4.61358976	     -3.18909993	      0.00000000	      1.78984238	      1.99708472	      4.36194260	     85.66928442	     -3.15951231	     61.16056536	    127.96108364	    104.47387989	     85.79234193	     -9.31774467	     73.79369886	    146.27695527	    107.03585144
      0.28333330	     -2.36841189	     -1.05146302	     -3.21793027	      0.40031846	      0.90120693	     -0.03217237	      0.01113355	     -6.67816277	      2.72619194	      0.00000000	      3.23831540	     -3.84863136	      0.00000000	     -0.48195927	     -8.17018222	     -5.74634874	      0.00000000	      4.82866542	     -2.99745791	      0.00000000	      2.00046863	      2.10828650	      5.04658376	     85.60025048	     -3.73917478	     60.93791614	    127.56359244	    104.27258481	     85.96391662	     -8.44607838	     74.11481228	    146.96308951	    107.28516473
      0.30000000	     -2.43108935	     -1.05982428	     -3.29150308	      0.40109344	      0.89981227	     -0.03155496	      0.09972829	     -6.64594154	      2.69870044	      0.00000000	      3.26915126	     -3.88549911	      0.00000000	     -0.45703611	     -8.20268330	     -5.70302990	      0.00000000	      4.83041397	     -2.96387254	      0.00000000	      1.94193029	      2.01142648	      5.15505457	     85.59842981	     -3.73780933	     60.92618284	    127.56329019	    104.25468664	     85.99376760	     -8.52796952	     74.14883483	    146.93248254	    107.30857387
      0.31666670	     -2.45404385	     -1.08289816	     -3.19618999	      0.40281739	      0.89967700	     -0.03115187	      0.04291106	     -6.60523156	      2.70537259	      0.00000000	      3.26712432	     -3.89185705	      0.00000000	     -0.47272068	     -8.24868589	     -5.68160077	      0.00000000	      4.81859009	     -2.94340263	      0.00000000	      2.06201665	      1.93399516	      5.40228274	     85.59336913	     -3.73636632	     60.91917302	    127.56136624	    104.24215019	     86.05892985	     -8.63599867	     74.17171096	    146.95275302	    107.32582173
